<?xml version="1.0" encoding="UTF-8"?>
<svg id="Capa_2" data-name="Capa 2" xmlns="http://www.w3.org/2000/svg" viewBox="0 0 730.74 729.18">
  <defs>
    <style>
      .cls-1 {
        fill: none;
        stroke: #1d1d1b;
        stroke-miterlimit: 10;
        stroke-width: 5px;
      }

      .cls-2 {
        fill: #010101;
      }
    </style>
  </defs>
  <g>
    <path class="cls-2" d="m365.9,195.02c94.65,0,171.39,76.74,171.39,171.4s-76.74,171.39-171.39,171.39-171.4-76.74-171.4-171.39,76.74-171.4,171.4-171.4Zm105.74,171.4c0-58.61-47.51-106.11-106.11-106.11s-106.11,47.5-106.11,106.11,47.5,106.1,106.11,106.1,106.11-47.5,106.11-106.1Z"/>
    <g>
      <path class="cls-1" d="m471.64,366.42c0,58.6-47.51,106.1-106.11,106.1s-106.11-47.5-106.11-106.1,47.5-106.11,106.11-106.11,106.11,47.5,106.11,106.11Z"/>
      <path class="cls-1" d="m537.29,366.42c0,94.65-76.74,171.39-171.39,171.39s-171.4-76.74-171.4-171.39,76.74-171.4,171.4-171.4,171.39,76.74,171.39,171.4Z"/>
    </g>
  </g>
  <g>
    <path d="m728.24,307.72v116.87l-97.04,19.83-26.61,56.34,57.91,78.26-87.13,83.48-78.78-54.78-54.26,22.96-18.26,96h-120.52l-16.7-96-51.13-23.48-84.52,57.39-85.04-83.48,56.87-80.35-20.87-56.87L2.5,425.11v-116.87l102.26-18.26,20.87-54.78-56.34-82.44,81.39-82.43,85.04,57.39,53.74-23.48L306.16,2.5h116.87l18.26,99.13,57.91,26.09,77.74-58.44,79.82,91.31-50.08,73.56,20.35,52.7,101.21,20.87Zm-149.76,58.05c0-116.53-94.47-211.01-211.01-211.01s-211.01,94.48-211.01,211.01,94.47,211.01,211.01,211.01,211.01-94.47,211.01-211.01Z"/>
    <g>
      <polygon class="cls-1" points="235.72 127.72 289.46 104.24 306.16 2.5 423.03 2.5 441.29 101.63 499.2 127.72 576.94 69.28 656.76 160.59 606.68 234.15 627.03 286.85 728.24 307.72 728.24 424.59 631.2 444.42 604.59 500.76 662.5 579.02 575.37 662.5 496.59 607.72 442.33 630.68 424.07 726.68 303.55 726.68 286.85 630.68 235.72 607.2 151.2 664.59 66.16 581.11 123.03 500.76 102.16 443.89 2.5 425.11 2.5 308.24 104.76 289.98 125.63 235.2 69.29 152.76 150.68 70.33 235.72 127.72"/>
      <circle class="cls-1" cx="367.47" cy="365.77" r="211.01"/>
    </g>
  </g>
</svg>