<?xml version="1.0" encoding="utf-8"?>
<!-- Generator: Adobe Illustrator 27.2.0, SVG Export Plug-In . SVG Version: 6.00 Build 0)  -->
<svg version="1.1" id="Capa_1" xmlns="http://www.w3.org/2000/svg" xmlns:xlink="http://www.w3.org/1999/xlink" x="0px" y="0px"
	 viewBox="0 0 850.39 850.39" style="enable-background:new 0 0 850.39 850.39;" xml:space="preserve">
<style type="text/css">
	.st0{fill:#7F1810;}
</style>
<g>
	<path class="st0" d="M227.17,382.77l1.68-1.68h10.29l1.68,1.68c0.7,17.92,1.64,28.87,2.83,32.86c1.19,3.99,4.97,8.19,11.34,12.6
		c6.37,4.41,14.83,8.01,25.41,10.81c10.57,2.8,21.24,4.2,32.02,4.2c14.83,0,28.17-2.73,40-8.19s21.03-13.47,27.61-24.04
		c6.58-10.57,9.87-22.43,9.87-35.59c0-9.24-1.57-17.29-4.72-24.15c-3.15-6.86-7.56-12.35-13.23-16.48
		c-5.67-4.13-12.14-7.21-19.42-9.24c-7.28-2.03-18.13-4.23-32.54-6.61c-14-2.24-24.95-4.27-32.86-6.09
		c-7.91-1.82-15.78-4.62-23.62-8.4c-7.84-3.78-14.38-8.57-19.63-14.38c-5.25-5.81-9.45-12.95-12.6-21.42
		c-3.15-8.47-4.72-17.53-4.72-27.19c0-26.17,9.1-47.62,27.29-64.35c18.19-16.72,42.62-25.09,73.28-25.09
		c12.18,0,25.44,1.51,39.79,4.51c14.35,3.01,27.4,7.45,39.16,13.33l1.47,2.52c-3.08,12.88-4.97,31.22-5.67,55.01l-1.89,1.68h-10.92
		l-1.68-1.47c-0.28-16.8-0.7-27.36-1.26-31.7c-0.56-4.34-6.93-9.73-19.11-16.17c-12.18-6.44-25.41-9.66-39.68-9.66
		c-11.9,0-23.03,2.38-33.38,7.14c-10.36,4.76-18.2,12.25-23.52,22.47c-5.32,10.22-7.98,20.65-7.98,31.28
		c0,8.26,1.61,15.57,4.83,21.94c3.22,6.37,7.38,11.41,12.49,15.12c5.11,3.71,11.06,6.48,17.85,8.29c6.79,1.82,19.21,4.06,37.27,6.72
		c24.78,3.5,42.8,7.74,54.06,12.7c11.27,4.97,20.29,12.84,27.09,23.62c6.79,10.78,10.18,23.8,10.18,39.05
		c0,29.81-12.14,54.66-36.43,74.54c-24.29,19.88-53.72,29.81-88.29,29.81c-28.98,0-54.38-5.18-76.22-15.54l-1.26-2.73
		C225.42,435.68,226.47,415.11,227.17,382.77z"/>
	<path class="st0" d="M350.06,357.96l1.68-1.47c25.62,1.12,45.56,1.68,59.84,1.68c15.82,0,37.16-0.49,64.04-1.47
		c9.94-0.28,17.14-0.42,21.63-0.42c35.41,0,59.42,6.44,72.02,19.32c12.6,12.88,18.9,28.13,18.9,45.77c0,11.76-3.08,23.31-9.24,34.64
		c-6.16,11.34-15.26,21.03-27.29,29.08c-12.04,8.05-28.63,14.1-49.76,18.16c3.92,5.46,10.99,14.91,21.21,28.34l29.81,39.47
		c9.66,13.02,20.02,26.77,31.07,41.26c11.06,14.49,18.19,22.68,21.42,24.57c3.22,1.89,5.98,3.04,8.29,3.46
		c2.31,0.42,5.98,0.63,11.02,0.63l1.68,1.68v9.87l-1.89,1.89c-6.72-0.84-14.7-1.26-23.94-1.26c-9.94,0-20.79,0.42-32.54,1.26
		c-9.66-11.76-24.85-32.12-45.56-61.1c-24.08-33.59-48.71-64.74-73.91-93.43l2.1-6.51c7.28,0.42,12.95,0.63,17.01,0.63
		c24.21,0,43.18-5.81,56.9-17.43c13.72-11.62,20.58-27.71,20.58-48.29c0-18.48-6.16-32.44-18.48-41.89
		c-12.32-9.45-28.97-14.17-49.97-14.17c-14.7,0-28.55,2.03-41.57,6.09c-2.1,3.08-3.15,29.33-3.15,78.74v97.21l0.21,40.94
		c0.14,15.82,0.56,26.04,1.26,30.65c0.7,4.62,1.71,7.7,3.04,9.24c1.33,1.54,3.88,2.83,7.66,3.88s13.09,1.86,27.92,2.41l1.68,1.26
		v10.5l-1.68,1.68c-0.7,0-13.02-0.42-36.95-1.26c-9.94-0.28-17.71-0.42-23.31-0.42c-4.34,0-24.36,0.56-60.05,1.68l-1.68-1.68v-10.5
		l1.68-1.26c13.02-0.56,21.7-1.26,26.04-2.1c4.34-0.84,7.24-1.92,8.71-3.25c1.47-1.33,2.66-4.16,3.57-8.5
		c0.91-4.34,1.43-14,1.57-28.97l0.21-44.3v-97.21l-0.42-40.94c-0.14-15.96-0.52-26.25-1.16-30.86c-0.63-4.62-1.61-7.7-2.94-9.24
		c-1.33-1.54-3.88-2.8-7.66-3.78c-3.78-0.98-13.09-1.75-27.92-2.31l-1.68-1.47V357.96z"/>
</g>
</svg>
